<svg xmlns="http://www.w3.org/2000/svg" viewBox="0 0 146.89 126.33"><defs><style>.cls-1{fill:#fff;}</style></defs><title>icon_book</title><g id="Layer_2" data-name="Layer 2"><g id="symbols"><path class="cls-1" d="M73.44,126.33a6.45,6.45,0,0,1-4.58-1.87L18.77,76.13C18.63,76,0,59.48,0,39.08,0,14.61,14.91,0,39.88,0,53.62,0,66.43,10.05,73.44,16.75,80.45,10.05,93.27,0,107,0c25,0,39.88,14.61,39.88,39.08,0,17.79-14.31,32.87-18.7,37.07l-.13.13-50,48.2A6.42,6.42,0,0,1,73.44,126.33ZM39.88,3C16.79,3,3,16.49,3,39.08,3,57.83,20.62,73.76,20.79,73.92L71,122.33a3.63,3.63,0,0,0,4.94,0L126.12,74c4.17-4,17.77-18.29,17.77-34.9C143.89,16.49,130.1,3,107,3,93.62,3,80.89,13.59,74.5,19.91l-1.05,1-1.05-1C66,13.59,53.26,3,39.88,3Z"/><path class="cls-1" d="M96.37,51.15,88.69,76.44a6.1,6.1,0,0,1-5.55,4.21H57.38a7.92,7.92,0,0,1-6.92-5.16,5.17,5.17,0,0,1-.06-3.54c.06-.56.17-1.12.2-1.79,0-.45-.22-.81-.17-1.14.11-.67.7-1.14,1.14-1.9A19.93,19.93,0,0,0,53.67,62c.14-.53-.14-1.14,0-1.62s.67-.92.95-1.42a16.77,16.77,0,0,0,1.87-5.08c.06-.59-.22-1.23-.06-1.67.2-.64.81-.92,1.23-1.48a14.7,14.7,0,0,0,2-5.05c.06-.47-.22-.95-.14-1.45s.78-1.09,1.23-1.73c1.17-1.73,1.4-5.55,4.94-4.55l0,.08A6.38,6.38,0,0,1,67,37.78H88.27a3.86,3.86,0,0,1,3.18,1.56A4.11,4.11,0,0,1,92,43L84.31,68.26c-1.31,4.3-2,5.25-5.58,5.25H54.47a1.3,1.3,0,0,0-1.06.42c-.22.33-.25.59,0,1.2.56,1.62,2.48,2,4,2H83.16a2.65,2.65,0,0,0,2.54-1.59l8.37-27.55a4.46,4.46,0,0,0,.14-1.59,3.73,3.73,0,0,1,1.65,1.2A4.15,4.15,0,0,1,96.37,51.15Zm-31.9,4.49h17a1.35,1.35,0,0,0,1.17-.89L83.19,53a.62.62,0,0,0-.61-.89h-17a1.34,1.34,0,0,0-1.17.89l-.59,1.79A.62.62,0,0,0,64.47,55.65Zm2.32-7.14h17a1.35,1.35,0,0,0,1.17-.89l.59-1.79a.62.62,0,0,0-.61-.89h-17a1.34,1.34,0,0,0-1.17.89l-.59,1.79A.62.62,0,0,0,66.78,48.5Z"/></g></g></svg>