<?xml version="1.0" encoding="utf-8"?>
<!-- Generator: Adobe Illustrator 21.1.0, SVG Export Plug-In . SVG Version: 6.00 Build 0)  -->
<svg version="1.1" id="Layer_1" xmlns="http://www.w3.org/2000/svg" xmlns:xlink="http://www.w3.org/1999/xlink" x="0px" y="0px"
	 viewBox="0 0 143.9 123.3" style="enable-background:new 0 0 143.9 123.3;" xml:space="preserve">
<style type="text/css">
	.st0{fill:#5A1B1E;}
	.st1{enable-background:new    ;}
	.st2{fill:#FFFFFF;}
</style>
<title>icon_handshake_invert</title>
<g id="Layer_2">
	<g id="symbols">
		<g>
			<path class="st0" d="M68.4,121.9L18.3,73.5C17.7,73,0,56.8,0,37.6C0,14,14.4,0,38.4,0c14,0,27.2,11.1,33.6,17.3
				C78.3,11.1,91.4,0,105.5,0c24,0,38.4,14.1,38.4,37.6c0,19.3-17.7,35.4-18.4,36.1l-50,48.2C73.5,123.8,70.4,123.8,68.4,121.9
				L68.4,121.9z"/>
		</g>
		<g class="st1">
			<path class="st2" d="M104.6,62.6c0,1-0.8,1.8-1.8,1.8H90.7c-1,2.4-3.2,4-5.8,4.4c-1.2,1.8-3,3.1-5.1,3.5c-1.5,2-4,3.1-6.5,3
				c-4.6,2.6-9.8,0.3-13.2-3l-8-7.9h-10c-1,0-1.8-0.8-1.8-1.8V43.9c0-1,0.8-1.8,1.8-1.8h11.7c3.2-3.2,5.5-6.3,10.3-6.3h3.3
				c1.8,0,3.6,0.6,5.1,1.6c1.5-1,3.2-1.6,5.1-1.6h4.7c5.3,0,7.5,3.5,10.7,7.1h9.9c1,0,1.8,0.8,1.8,1.8V62.6z M45.6,57.3
				c-2.3,0-2.3,3.6,0,3.6S48,57.3,45.6,57.3z M79.9,50.8l-3.5,3.9c-3.1,3.5-8.6,3.4-11.6-0.2c-2.1-2.6-2.1-6.3,0.1-8.8l4.9-5.7
				c-1.7-0.9-3.8-0.6-5.7-0.6c-1.6,0-3.2,0.7-4.4,1.8l-4.4,4.4H51v15.2c1.2,0,2.3-0.2,3.3,0.8l8.3,8.1c1.7,1.6,3.9,3.1,6.3,3.1
				c1.3,0,2.6-0.4,3.5-1.3c2.1,0.7,4.5-0.4,5.2-2.6c1.3,0.1,2.6-0.3,3.5-1.2c0.6-0.6,1.5-1.8,1.4-2.7c0.3,0.3,0.9,0.3,1.2,0.3
				c3.3,0,5.1-3.5,3-6.1C84.5,56.4,82.4,53.4,79.9,50.8z M93.9,60.9V46.6h-2.6l-4.4-5c-1.2-1.3-2.9-2.1-4.7-2.1h-4.7
				c-1.6,0-3.1,0.7-4.1,1.9l-5.8,6.8c-1,1.2-1,3,0,4.2c1.6,1.9,4.5,1.9,6.2,0.1l5.4-6.1c1.3-1.4,3.6-0.1,3,1.7
				c1.1,1.2,2.2,2.4,3.2,3.7c1.4,1.7,2.7,3.5,4.1,5.3c0.9,1.1,1.5,2.5,1.7,3.9H93.9z M99.2,57.3c-2.3,0-2.3,3.6,0,3.6
				C101.6,60.9,101.6,57.3,99.2,57.3z"/>
		</g>
	</g>
</g>
</svg>
