<?xml version="1.0" encoding="utf-8"?>
<!-- Generator: Adobe Illustrator 21.1.0, SVG Export Plug-In . SVG Version: 6.00 Build 0)  -->
<svg version="1.1" id="Layer_1" xmlns="http://www.w3.org/2000/svg" xmlns:xlink="http://www.w3.org/1999/xlink" x="0px" y="0px"
	 viewBox="0 0 143.9 123.3" style="enable-background:new 0 0 143.9 123.3;" xml:space="preserve">
<style type="text/css">
	.st0{fill:#5A1B1E;}
	.st1{enable-background:new    ;}
	.st2{fill:#FFFFFF;}
</style>
<title>icon_people_invert_1</title>
<g id="Layer_2">
	<g id="symbols">
		<g>
			<path class="st0" d="M68.4,121.9L18.3,73.5C17.7,73,0,56.8,0,37.6C0,14,14.4,0,38.4,0c14,0,27.2,11.1,33.6,17.3
				C78.3,11.1,91.4,0,105.5,0c24,0,38.4,14.1,38.4,37.6c0,19.3-17.7,35.4-18.4,36.1l-50,48.2C73.5,123.8,70.4,123.8,68.4,121.9
				L68.4,121.9z"/>
		</g>
		<g class="st1">
			<path class="st2" d="M54.5,65h-3.7c-2.8,0-5.4-1.3-5.4-4.4c0-2.3-0.1-9.9,3.5-9.9c0.6,0,3.5,2.4,7.3,2.4c1.3,0,2.5-0.2,3.7-0.6
				c-0.1,0.6-0.1,1.2-0.1,1.8c0,2.5,0.8,5.1,2.3,7.1C59,61.5,56.3,62.7,54.5,65z M56,50.7c-3.9,0-7.1-3.2-7.1-7.1s3.2-7.1,7.1-7.1
				s7.1,3.2,7.1,7.1S60,50.7,56,50.7z M84.3,86.4H59.9c-4.5,0-7.5-2.7-7.5-7.2c0-6.3,1.5-16,9.7-16c0.9,0,4.4,3.9,10,3.9
				s9-3.9,10-3.9c8.2,0,9.7,9.7,9.7,16C91.7,83.7,88.8,86.4,84.3,86.4z M72.1,65c-5.9,0-10.7-4.8-10.7-10.7s4.8-10.7,10.7-10.7
				s10.7,4.8,10.7,10.7S78,65,72.1,65z M88.2,50.7c-3.9,0-7.1-3.2-7.1-7.1s3.2-7.1,7.1-7.1c3.9,0,7.1,3.2,7.1,7.1
				S92.1,50.7,88.2,50.7z M93.5,65h-3.7c-1.9-2.2-4.5-3.5-7.4-3.6c1.5-2.1,2.3-4.6,2.3-7.1c0-0.6-0.1-1.2-0.1-1.8
				c1.2,0.4,2.4,0.6,3.7,0.6c3.8,0,6.7-2.4,7.3-2.4c3.5,0,3.5,7.6,3.5,9.9C98.9,63.6,96.3,65,93.5,65z"/>
		</g>
	</g>
</g>
</svg>
