<?xml version="1.0" encoding="utf-8"?>
<!-- Generator: Adobe Illustrator 21.1.0, SVG Export Plug-In . SVG Version: 6.00 Build 0)  -->
<svg version="1.1" id="Layer_1" xmlns="http://www.w3.org/2000/svg" xmlns:xlink="http://www.w3.org/1999/xlink" x="0px" y="0px"
	 viewBox="0 0 146.9 126.3" style="enable-background:new 0 0 146.9 126.3;" xml:space="preserve">
<style type="text/css">
	.st0{fill:#5A1B1E;}
	.st1{enable-background:new    ;}
</style>
<title>icon_heart_invert_1</title>
<g id="Layer_2">
	<g id="symbols">
		<g>
			<path class="st0" d="M73.5,126.4c-1.5,0-3-0.5-4.1-1.5h0l-0.5-0.4L18.8,76.1C18.6,76,0,59.4,0,39C0,14.6,14.9,0,39.9,0
				c13.7,0,26.6,10.1,33.6,16.7C80.5,10.1,93.3,0,107,0c25,0,39.9,14.6,39.9,39.1c0,17.9-14.3,32.9-18.7,37.1l-0.1,0.1l-50,48.2
				C76.8,125.7,75.2,126.4,73.5,126.4z M70.5,121.9L70.5,121.9l0.5,0.4c1.3,1.3,3.6,1.3,4.9,0L126.1,74
				c16.5-15.7,17.8-30.7,17.8-34.9C143.9,16.5,130.1,3,107,3C93.6,3,80.9,13.6,74.5,19.9l-1.1,1l-1.1-1C66,13.6,53.3,3,39.9,3
				C16.8,3,3,16.5,3,39c0,18.8,17.6,34.7,17.8,34.9L70.5,121.9z"/>
		</g>
		<g class="st1">
			<path class="st0" d="M72.2,80.2L54.8,63.3c-0.2-0.2-6.4-5.8-6.4-12.5c0-8.2,5-13.1,13.3-13.1c4.9,0,9.5,3.9,11.7,6
				c2.2-2.2,6.8-6,11.7-6c8.3,0,13.3,4.9,13.3,13.1c0,6.7-6.1,12.3-6.4,12.6L74.6,80.2c-0.3,0.3-0.8,0.5-1.2,0.5
				S72.5,80.5,72.2,80.2z"/>
		</g>
	</g>
</g>
</svg>
