<svg xmlns="http://www.w3.org/2000/svg" viewBox="0 0 143.89 123.33"><defs><style>.cls-1{fill:#fcfcfc;}.cls-2{fill:#5a1b1e;}</style></defs><title>icon_handshake</title><g id="Layer_2" data-name="Layer 2"><g id="symbols"><path class="cls-1" d="M68.41,121.89,18.31,73.55C17.66,73,0,56.85,0,37.58,0,14.05,14.37,0,38.38,0,52.43,0,65.6,11.08,71.94,17.34,78.29,11.08,91.45,0,105.51,0c24,0,38.38,14.05,38.38,37.58,0,19.27-17.66,35.41-18.39,36.13l-50,48.18a5,5,0,0,1-7.07,0Z"/><path class="cls-2" d="M104.57,62.65a1.8,1.8,0,0,1-1.79,1.79H90.67a7.29,7.29,0,0,1-5.78,4.41,8.49,8.49,0,0,1-5.11,3.54,7.76,7.76,0,0,1-6.5,3c-4.6,2.6-9.8.33-13.23-3l-8-7.87h-10a1.8,1.8,0,0,1-1.79-1.79V43.89a1.8,1.8,0,0,1,1.79-1.79H53.8c3.24-3.24,5.47-6.25,10.33-6.25h3.27a9,9,0,0,1,5.05,1.56,9,9,0,0,1,5.05-1.56h4.66c5.3,0,7.51,3.46,10.72,7.14h9.91a1.8,1.8,0,0,1,1.79,1.79ZM45.62,57.29a1.79,1.79,0,0,0,0,3.57A1.79,1.79,0,0,0,45.62,57.29Zm34.24-6.47-3.49,3.91a7.63,7.63,0,0,1-11.55-.17,6.8,6.8,0,0,1,.06-8.79L69.82,40c-1.73-.89-3.82-.59-5.69-.59a6.26,6.26,0,0,0-4.41,1.84l-4.41,4.41H51V60.86c1.23,0,2.34-.17,3.32.78l8.29,8.15c1.7,1.65,3.91,3.1,6.34,3.1a5,5,0,0,0,3.49-1.31A4.06,4.06,0,0,0,77.58,69a4.49,4.49,0,0,0,3.54-1.23,4,4,0,0,0,1.4-2.68,2,2,0,0,0,1.2.28,3.71,3.71,0,0,0,3-6.11A99.48,99.48,0,0,0,79.87,50.82Zm14,10V46.57h-2.6l-4.38-5a6.32,6.32,0,0,0-4.72-2.12H77.5a5.4,5.4,0,0,0-4.07,1.87l-5.83,6.78a3.25,3.25,0,0,0,0,4.19,4.09,4.09,0,0,0,6.17.08l5.39-6.08a1.79,1.79,0,0,1,3,1.73c1.06,1.23,2.2,2.43,3.24,3.66,1.4,1.73,2.73,3.54,4.1,5.3a7.93,7.93,0,0,1,1.67,3.91Zm5.36-3.57a1.79,1.79,0,0,0,0,3.57A1.79,1.79,0,0,0,99.21,57.29Z"/></g></g></svg>