<svg xmlns="http://www.w3.org/2000/svg" viewBox="0 0 146.89 126.33"><defs><style>.cls-1{fill:#fff;}</style></defs><title>icon_heart</title><g id="Layer_2" data-name="Layer 2"><g id="symbols"><path class="cls-1" d="M73.44,126.33a6.45,6.45,0,0,1-4.58-1.87L18.77,76.13C18.63,76,0,59.5,0,39.08,0,14.61,14.91,0,39.88,0,53.62,0,66.43,10.05,73.44,16.75,80.46,10.06,93.27,0,107,0c25,0,39.88,14.61,39.88,39.08,0,17.79-14.31,32.87-18.7,37.07L78,124.47A6.43,6.43,0,0,1,73.44,126.33ZM39.88,3C16.79,3,3,16.49,3,39.08,3,57.84,20.62,73.76,20.79,73.92L71,122.33a3.63,3.63,0,0,0,4.95,0L126.12,74c4.17-4,17.77-18.29,17.77-34.9C143.89,16.49,130.1,3,107,3,93.62,3,80.89,13.59,74.5,19.91l-1.05,1-1.05-1C66,13.59,53.26,3,39.88,3Z"/><path class="cls-1" d="M72.19,80.15,54.77,63.35c-.22-.2-6.36-5.8-6.36-12.5,0-8.18,5-13.06,13.34-13.06,4.88,0,9.46,3.85,11.67,6,2.21-2.18,6.78-6,11.67-6,8.34,0,13.34,4.88,13.34,13.06,0,6.7-6.14,12.31-6.39,12.56L74.64,80.15a1.75,1.75,0,0,1-2.46,0Z"/></g></g></svg>