<svg xmlns="http://www.w3.org/2000/svg" viewBox="0 0 143.89 123.33"><defs><style>.cls-1{fill:#fff;}.cls-2{fill:#5a1b1e;}</style></defs><title>icon_people</title><g id="Layer_2" data-name="Layer 2"><g id="symbols"><path class="cls-1" d="M68.41,121.89,18.31,73.55C17.66,73,0,56.85,0,37.58,0,14.05,14.37,0,38.38,0,52.43,0,65.6,11.08,71.94,17.34,78.29,11.08,91.45,0,105.51,0c24,0,38.38,14.05,38.38,37.58,0,19.27-17.66,35.41-18.39,36.13l-50,48.18a5,5,0,0,1-7.07,0Z"/><path class="cls-2" d="M54.46,65H50.72c-2.79,0-5.41-1.34-5.41-4.44,0-2.26-.08-9.85,3.46-9.85.59,0,3.49,2.37,7.26,2.37a11.16,11.16,0,0,0,3.71-.64,13.6,13.6,0,0,0-.14,1.84,12.61,12.61,0,0,0,2.26,7.14A9.88,9.88,0,0,0,54.46,65ZM56,50.67a7.14,7.14,0,1,1,7.15-7.14A7.16,7.16,0,0,1,56,50.67ZM84.3,86.39H59.91c-4.47,0-7.45-2.71-7.45-7.23,0-6.31,1.48-16,9.66-16,.95,0,4.41,3.88,10,3.88s9-3.88,10-3.88c8.18,0,9.66,9.68,9.66,16C91.75,83.68,88.76,86.39,84.3,86.39ZM72.1,65A10.72,10.72,0,1,1,82.82,54.24,10.72,10.72,0,0,1,72.1,65ZM88.18,50.67a7.14,7.14,0,1,1,7.14-7.14A7.16,7.16,0,0,1,88.18,50.67ZM93.48,65H89.74a9.88,9.88,0,0,0-7.4-3.57,12.61,12.61,0,0,0,2.26-7.14,13.76,13.76,0,0,0-.14-1.84,11.15,11.15,0,0,0,3.71.64c3.77,0,6.67-2.37,7.26-2.37,3.54,0,3.46,7.59,3.46,9.85C98.89,63.62,96.27,65,93.48,65Z"/></g></g></svg>