<?xml version="1.0" encoding="utf-8"?>
<!-- Generator: Adobe Illustrator 21.1.0, SVG Export Plug-In . SVG Version: 6.00 Build 0)  -->
<svg version="1.1" id="Layer_1" xmlns="http://www.w3.org/2000/svg" xmlns:xlink="http://www.w3.org/1999/xlink" x="0px" y="0px"
	 viewBox="0 0 146.9 126.3" style="enable-background:new 0 0 146.9 126.3;" xml:space="preserve">
<style type="text/css">
	.st0{fill:#5A1B1E;}
	.st1{enable-background:new    ;}
</style>
<title>icon_book_invert_1</title>
<g id="Layer_2">
	<g id="symbols">
		<g>
			<path class="st0" d="M73.5,126.4c-1.5,0-3-0.5-4.1-1.5h0l-0.5-0.4L18.8,76.1C18.6,76,0,59.4,0,39C0,14.6,14.9,0,39.9,0
				c13.7,0,26.6,10.1,33.6,16.7C80.5,10.1,93.3,0,107,0c25,0,39.9,14.6,39.9,39.1c0,17.9-14.3,32.9-18.7,37.1l-0.1,0.1l-50,48.2
				C76.8,125.7,75.2,126.4,73.5,126.4z M70.5,121.9L70.5,121.9l0.5,0.4c1.3,1.3,3.6,1.3,4.9,0L126.1,74
				c16.5-15.7,17.8-30.7,17.8-34.9C143.9,16.5,130.1,3,107,3C93.6,3,80.9,13.6,74.5,19.9l-1.1,1l-1.1-1C66,13.6,53.3,3,39.9,3
				C16.8,3,3,16.5,3,39c0,18.8,17.6,34.7,17.8,34.9L70.5,121.9z"/>
		</g>
		<g class="st1">
			<path class="st0" d="M96.4,51.2l-7.7,25.3c-0.7,2.4-3.2,4.2-5.6,4.2H57.4c-2.8,0-5.9-2.3-6.9-5.2C50,74.2,50,73,50.4,71.9
				c0.1-0.6,0.2-1.1,0.2-1.8c0-0.4-0.2-0.8-0.2-1.1c0.1-0.7,0.7-1.1,1.1-1.9c0.8-1.4,1.8-3.7,2.1-5.1c0.1-0.5-0.1-1.1,0-1.6
				c0.1-0.5,0.7-0.9,0.9-1.4c0.8-1.3,1.7-3.8,1.9-5.1c0.1-0.6-0.2-1.2-0.1-1.7c0.2-0.6,0.8-0.9,1.2-1.5c0.7-0.9,1.8-3.6,2-5.1
				c0.1-0.5-0.2-0.9-0.1-1.5c0.1-0.5,0.8-1.1,1.2-1.7c1.2-1.7,1.4-5.6,4.9-4.5l0,0.1c0.5-0.1,0.9-0.3,1.4-0.3h21.2
				c1.3,0,2.5,0.6,3.2,1.6c0.7,1,0.9,2.3,0.5,3.6l-7.6,25.3c-1.3,4.3-2,5.2-5.6,5.2H54.5c-0.4,0-0.8,0.1-1.1,0.4
				c-0.2,0.3-0.3,0.6,0,1.2c0.6,1.6,2.5,2,4,2h25.8c1,0,2.2-0.6,2.5-1.6l8.4-27.5c0.2-0.5,0.2-1.1,0.1-1.6c0.6,0.3,1.2,0.6,1.6,1.2
				C96.6,48.6,96.8,49.9,96.4,51.2z M64.5,55.6h17c0.5,0,1-0.4,1.2-0.9l0.6-1.8c0.2-0.5-0.1-0.9-0.6-0.9h-17c-0.5,0-1,0.4-1.2,0.9
				l-0.6,1.8C63.7,55.3,64,55.6,64.5,55.6z M66.8,48.5h17c0.5,0,1-0.4,1.2-0.9l0.6-1.8c0.2-0.5-0.1-0.9-0.6-0.9h-17
				c-0.5,0-1,0.4-1.2,0.9l-0.6,1.8C66,48.1,66.3,48.5,66.8,48.5z"/>
		</g>
	</g>
</g>
</svg>
