<svg xmlns="http://www.w3.org/2000/svg" xmlns:xlink="http://www.w3.org/1999/xlink" viewBox="0 0 258.32 43.3"><defs><style>.cls-1{fill:url(#linear-gradient);}.cls-2{fill:url(#linear-gradient-3);}.cls-11,.cls-3{fill:url(#linear-gradient-4);}.cls-3{clip-rule:evenodd;}.cls-4{fill:url(#linear-gradient-5);}.cls-5{fill:url(#linear-gradient-6);}.cls-6{fill:url(#linear-gradient-7);}.cls-7{clip-path:url(#clip-path);}.cls-8{clip-path:url(#clip-path-2);}.cls-9{fill:url(#linear-gradient-25);}.cls-10{clip-path:url(#clip-path-3);}.cls-11,.cls-13,.cls-14{fill-rule:evenodd;}.cls-12{clip-path:url(#clip-path-4);}.cls-13{fill:url(#linear-gradient-65);}.cls-14{fill:url(#linear-gradient-66);}.cls-15{fill:url(#linear-gradient-79);}.cls-16{fill:url(#linear-gradient-80);}.cls-17{fill:url(#linear-gradient-81);}</style><linearGradient id="linear-gradient" x1="-4.48" y1="21.71" x2="258" y2="21.71" gradientUnits="userSpaceOnUse"><stop offset="0" stop-color="#c64f50"/><stop offset="1" stop-color="#6a1111"/></linearGradient><linearGradient id="linear-gradient-3" x1="-4.48" y1="21.71" x2="258" y2="21.71" xlink:href="#linear-gradient"/><linearGradient id="linear-gradient-4" x1="-4.48" y1="26.57" x2="258" y2="26.57" xlink:href="#linear-gradient"/><linearGradient id="linear-gradient-5" x1="-6.37" y1="21.65" x2="256.11" y2="21.65" xlink:href="#linear-gradient"/><linearGradient id="linear-gradient-6" x1="-5.43" y1="21.65" x2="257.05" y2="21.65" xlink:href="#linear-gradient"/><linearGradient id="linear-gradient-7" x1="-4.48" y1="21.65" x2="258" y2="21.65" xlink:href="#linear-gradient"/><clipPath id="clip-path"><path class="cls-1" d="M162,34.63l-2.87,7.82h-24V41.33Q145.74,31.69,150,25.58t4.3-11.17A8.89,8.89,0,0,0,152,8a7.51,7.51,0,0,0-5.64-2.49,8.89,8.89,0,0,0-5.4,1.75,10,10,0,0,0-3.5,5.14h-1.12q.74-5.55,3.85-8.51a10.77,10.77,0,0,1,7.73-3,11.46,11.46,0,0,1,8.27,3.18,10,10,0,0,1,3.31,7.47A14.42,14.42,0,0,1,158,17.8a39.5,39.5,0,0,1-7.19,10.28q-7.45,8.15-9.31,9.83h10.61a31.07,31.07,0,0,0,4.54-.22,5.6,5.6,0,0,0,2.35-1,6.58,6.58,0,0,0,1.82-2.08Z"/></clipPath><clipPath id="clip-path-2"><path class="cls-1" d="M189.25,27.45v4.28h-5.44V42.45h-5V31.73h-17.2V27.89L180.5,1h3.31V27.45Zm-10.39,0V7.3L164.61,27.45Z"/></clipPath><linearGradient id="linear-gradient-25" x1="-4.48" y1="17.37" x2="258" y2="17.37" xlink:href="#linear-gradient"/><clipPath id="clip-path-3"><path class="cls-2" d="M130.73,40.59a162.67,162.67,0,0,1-13-12.51,39.58,39.58,0,0,1-7.19-10.28,14.43,14.43,0,0,1-1.45-6.18,10,10,0,0,1,3.31-7.47A11.47,11.47,0,0,1,120.64,1a10.76,10.76,0,0,1,7.73,3q3.11,3,3.86,8.51h-1.12a10.05,10.05,0,0,0-3.5-5.14,8.9,8.9,0,0,0-5.4-1.75A7.51,7.51,0,0,0,116.57,8a8.88,8.88,0,0,0-2.37,6.37q0,5.07,4.3,11.17t14.91,15.75v1.12A29.93,29.93,0,0,1,130.73,40.59Z"/></clipPath><clipPath id="clip-path-4"><path class="cls-3" d="M129.87,17.22c-4.34,0-6.88,3.32-6.14,7a11.07,11.07,0,0,0,2,4.27,34.38,34.38,0,0,0,7.59,7.31.73.73,0,0,0,1,0c.81-.66,1.66-1.26,2.46-1.94a26.31,26.31,0,0,0,5.91-6.61A8,8,0,0,0,144,22.51,5.63,5.63,0,0,0,140,17.36a5.2,5.2,0,0,0-5.77,2.33c-.29.43-.41.52-.72,0A5,5,0,0,0,129.87,17.22Z"/></clipPath><linearGradient id="linear-gradient-65" x1="-4.48" y1="33.41" x2="258" y2="33.41" xlink:href="#linear-gradient"/><linearGradient id="linear-gradient-66" x1="-4.48" y1="26.4" x2="258" y2="26.4" xlink:href="#linear-gradient"/><linearGradient id="linear-gradient-79" x1="-4.48" y1="39.88" x2="258" y2="39.88" xlink:href="#linear-gradient"/><linearGradient id="linear-gradient-80" x1="-4.48" y1="29.57" x2="258" y2="29.57" xlink:href="#linear-gradient"/><linearGradient id="linear-gradient-81" x1="-4.48" y1="24.75" x2="258" y2="24.75" xlink:href="#linear-gradient"/></defs><title>Asset 1</title><g id="Layer_2" data-name="Layer 2"><g id="header"><path class="cls-4" d="M25.56,8.66l-3.89,1a8.39,8.39,0,0,0-2.58-4.12A5.89,5.89,0,0,0,15.22,4a4.87,4.87,0,0,0-3.74,1.56A5.87,5.87,0,0,0,10,9.72a9.14,9.14,0,0,0,1.54,4.79,27.78,27.78,0,0,0,4.6,4.88,23.32,23.32,0,0,1,5.28,6.38A12.75,12.75,0,0,1,23,31.56a11.19,11.19,0,0,1-1.64,5.77A12,12,0,0,1,16.9,41.7,11.61,11.61,0,0,1,11,43.3a10.1,10.1,0,0,1-6.85-2.52A14.19,14.19,0,0,1,0,33.38l3.81-1.29a10.41,10.41,0,0,0,2.91,5.49,6.79,6.79,0,0,0,4.65,1.79,7,7,0,0,0,5.16-2.21,7.52,7.52,0,0,0,2.16-5.46A9.72,9.72,0,0,0,17.47,27a22.45,22.45,0,0,0-4.78-5.46,30.26,30.26,0,0,1-5-5.32,12.3,12.3,0,0,1-1.88-6.5,9.48,9.48,0,0,1,2.76-7A9.3,9.3,0,0,1,15.47,0a9.46,9.46,0,0,1,6.14,2.19A12.65,12.65,0,0,1,25.56,8.66Z"/><path class="cls-5" d="M51.87,8.66,48,9.64A8.39,8.39,0,0,0,45.4,5.52,5.89,5.89,0,0,0,41.53,4a4.87,4.87,0,0,0-3.74,1.56,5.87,5.87,0,0,0-1.44,4.16,9.14,9.14,0,0,0,1.54,4.79,27.78,27.78,0,0,0,4.6,4.88,23.32,23.32,0,0,1,5.28,6.38,12.75,12.75,0,0,1,1.5,5.79,11.19,11.19,0,0,1-1.64,5.77,12,12,0,0,1-4.41,4.37,11.61,11.61,0,0,1-5.88,1.6,10.1,10.1,0,0,1-6.85-2.52,14.19,14.19,0,0,1-4.16-7.4l3.81-1.29A10.41,10.41,0,0,0,33,37.58a6.79,6.79,0,0,0,4.65,1.79,7,7,0,0,0,5.16-2.21A7.52,7.52,0,0,0,45,31.7,9.72,9.72,0,0,0,43.78,27,22.45,22.45,0,0,0,39,21.58a30.26,30.26,0,0,1-5-5.32,12.3,12.3,0,0,1-1.88-6.5,9.48,9.48,0,0,1,2.76-7A9.3,9.3,0,0,1,41.78,0a9.46,9.46,0,0,1,6.14,2.19A12.65,12.65,0,0,1,51.87,8.66Z"/><path class="cls-6" d="M58.2,1h5.28Q71.24,1,74,2A8.93,8.93,0,0,1,78.4,5.24a9.1,9.1,0,0,1,1.69,5.49,10.17,10.17,0,0,1-1.8,5.91,10.05,10.05,0,0,1-4.83,3.76,11.1,11.1,0,0,1,5.73,3.83,10.2,10.2,0,0,1,2.08,6.4,11.6,11.6,0,0,1-1.78,6.5,10.07,10.07,0,0,1-4.78,3.92q-3,1.21-10.34,1.2H52.62Zm1.18,21.63L57.25,38.37h5.57a44.25,44.25,0,0,0,8-.48,8.4,8.4,0,0,0,4.66-2.54,7,7,0,0,0,1.58-4.72,7,7,0,0,0-1.29-4.3,8.32,8.32,0,0,0-4.22-2.69,29.85,29.85,0,0,0-8.77-1Zm2.4-17.74-1.85,13.7q1.19.11,2.78.11a25.58,25.58,0,0,0,8-.9A7.83,7.83,0,0,0,74.55,15a7.2,7.2,0,0,0,1.36-4.25A5,5,0,0,0,73.79,6.3q-2.12-1.45-9-1.45Q63.55,4.85,61.78,4.93Z"/><path class="cls-1" d="M162,34.63l-2.87,7.82h-24V41.33Q145.74,31.69,150,25.58t4.3-11.17A8.89,8.89,0,0,0,152,8a7.51,7.51,0,0,0-5.64-2.49,8.89,8.89,0,0,0-5.4,1.75,10,10,0,0,0-3.5,5.14h-1.12q.74-5.55,3.85-8.51a10.77,10.77,0,0,1,7.73-3,11.46,11.46,0,0,1,8.27,3.18,10,10,0,0,1,3.31,7.47A14.42,14.42,0,0,1,158,17.8a39.5,39.5,0,0,1-7.19,10.28q-7.45,8.15-9.31,9.83h10.61a31.07,31.07,0,0,0,4.54-.22,5.6,5.6,0,0,0,2.35-1,6.58,6.58,0,0,0,1.82-2.08Z"/><g class="cls-7"><polygon class="cls-1" points="135.96 0.97 136.55 42.45 135.13 42.45 135.13 0.97 135.96 0.97"/><polygon class="cls-1" points="137.88 0.97 138.47 42.45 136.55 42.45 135.96 0.97 137.88 0.97"/><polygon class="cls-1" points="139.79 0.97 140.38 42.45 138.47 42.45 137.88 0.97 139.79 0.97"/><polygon class="cls-1" points="141.7 0.97 142.29 42.45 140.38 42.45 139.79 0.97 141.7 0.97"/><polygon class="cls-1" points="143.62 0.97 144.21 42.45 142.29 42.45 141.7 0.97 143.62 0.97"/><polygon class="cls-1" points="145.53 0.97 146.12 42.45 144.21 42.45 143.62 0.97 145.53 0.97"/><polygon class="cls-1" points="147.45 0.97 148.04 42.45 146.12 42.45 145.53 0.97 147.45 0.97"/><polygon class="cls-1" points="149.36 0.97 149.95 42.45 148.04 42.45 147.45 0.97 149.36 0.97"/><polygon class="cls-1" points="151.27 0.97 151.86 42.45 149.95 42.45 149.36 0.97 151.27 0.97"/><polygon class="cls-1" points="153.19 0.97 153.78 42.45 151.86 42.45 151.27 0.97 153.19 0.97"/><polygon class="cls-1" points="155.1 0.97 155.69 42.45 153.78 42.45 153.19 0.97 155.1 0.97"/><polygon class="cls-1" points="157.01 0.97 157.6 42.45 155.69 42.45 155.1 0.97 157.01 0.97"/><polygon class="cls-1" points="158.93 0.97 159.52 42.45 157.6 42.45 157.01 0.97 158.93 0.97"/><polygon class="cls-1" points="160.84 0.97 161.43 42.45 159.52 42.45 158.93 0.97 160.84 0.97"/><polygon class="cls-1" points="161.43 42.45 160.84 0.97 161.98 0.97 161.98 42.45 161.43 42.45"/></g><path class="cls-1" d="M189.25,27.45v4.28h-5.44V42.45h-5V31.73h-17.2V27.89L180.5,1h3.31V27.45Zm-10.39,0V7.3L164.61,27.45Z"/><g class="cls-8"><polygon class="cls-9" points="164.76 7.3 165.05 27.45 164.61 27.45 164.61 7.3 164.76 7.3"/><polygon class="cls-9" points="166.67 7.3 166.96 27.45 165.05 27.45 164.76 7.3 166.67 7.3"/><polygon class="cls-9" points="168.59 7.3 168.87 27.45 166.96 27.45 166.67 7.3 168.59 7.3"/><polygon class="cls-9" points="170.5 7.3 170.79 27.45 168.87 27.45 168.59 7.3 170.5 7.3"/><polygon class="cls-9" points="172.41 7.3 172.7 27.45 170.79 27.45 170.5 7.3 172.41 7.3"/><polygon class="cls-9" points="174.33 7.3 174.62 27.45 172.7 27.45 172.41 7.3 174.33 7.3"/><polygon class="cls-9" points="176.24 7.3 176.53 27.45 174.62 27.45 174.33 7.3 176.24 7.3"/><polygon class="cls-9" points="178.16 7.3 178.44 27.45 176.53 27.45 176.24 7.3 178.16 7.3"/><polygon class="cls-9" points="178.44 27.45 178.16 7.3 178.87 7.3 178.87 27.45 178.44 27.45"/><polygon class="cls-1" points="162.76 0.97 163.35 42.45 161.66 42.45 161.66 0.97 162.76 0.97"/><polygon class="cls-1" points="164.67 0.97 165.26 42.45 163.35 42.45 162.76 0.97 164.67 0.97"/><polygon class="cls-1" points="166.58 0.97 167.17 42.45 165.26 42.45 164.67 0.97 166.58 0.97"/><polygon class="cls-1" points="168.5 0.97 169.09 42.45 167.17 42.45 166.58 0.97 168.5 0.97"/><polygon class="cls-1" points="170.41 0.97 171 42.45 169.09 42.45 168.5 0.97 170.41 0.97"/><polygon class="cls-1" points="172.32 0.97 172.91 42.45 171 42.45 170.41 0.97 172.32 0.97"/><polygon class="cls-1" points="174.24 0.97 174.83 42.45 172.91 42.45 172.32 0.97 174.24 0.97"/><polygon class="cls-1" points="176.15 0.97 176.74 42.45 174.83 42.45 174.24 0.97 176.15 0.97"/><polygon class="cls-1" points="178.07 0.97 178.66 42.45 176.74 42.45 176.15 0.97 178.07 0.97"/><polygon class="cls-1" points="179.98 0.97 180.57 42.45 178.66 42.45 178.07 0.97 179.98 0.97"/><polygon class="cls-1" points="181.89 0.97 182.48 42.45 180.57 42.45 179.98 0.97 181.89 0.97"/><polygon class="cls-1" points="183.81 0.97 184.4 42.45 182.48 42.45 181.89 0.97 183.81 0.97"/><polygon class="cls-1" points="185.72 0.97 186.31 42.45 184.4 42.45 183.81 0.97 185.72 0.97"/><polygon class="cls-1" points="187.63 0.97 188.22 42.45 186.31 42.45 185.72 0.97 187.63 0.97"/><polygon class="cls-1" points="188.22 42.45 187.63 0.97 189.25 0.97 189.25 42.45 188.22 42.45"/></g><path class="cls-2" d="M130.73,40.59a162.67,162.67,0,0,1-13-12.51,39.58,39.58,0,0,1-7.19-10.28,14.43,14.43,0,0,1-1.45-6.18,10,10,0,0,1,3.31-7.47A11.47,11.47,0,0,1,120.64,1a10.76,10.76,0,0,1,7.73,3q3.11,3,3.86,8.51h-1.12a10.05,10.05,0,0,0-3.5-5.14,8.9,8.9,0,0,0-5.4-1.75A7.51,7.51,0,0,0,116.57,8a8.88,8.88,0,0,0-2.37,6.37q0,5.07,4.3,11.17t14.91,15.75v1.12A29.93,29.93,0,0,1,130.73,40.59Z"/><g class="cls-10"><polygon class="cls-2" points="109.17 0.97 109.76 42.45 109.06 42.45 109.06 0.97 109.17 0.97"/><polygon class="cls-2" points="111.08 0.97 111.67 42.45 109.76 42.45 109.17 0.97 111.08 0.97"/><polygon class="cls-2" points="113 0.97 113.59 42.45 111.67 42.45 111.08 0.97 113 0.97"/><polygon class="cls-2" points="114.91 0.97 115.5 42.45 113.59 42.45 113 0.97 114.91 0.97"/><polygon class="cls-2" points="116.83 0.97 117.42 42.45 115.5 42.45 114.91 0.97 116.83 0.97"/><polygon class="cls-2" points="118.74 0.97 119.33 42.45 117.42 42.45 116.83 0.97 118.74 0.97"/><polygon class="cls-2" points="120.65 0.97 121.24 42.45 119.33 42.45 118.74 0.97 120.65 0.97"/><polygon class="cls-2" points="122.57 0.97 123.16 42.45 121.24 42.45 120.65 0.97 122.57 0.97"/><polygon class="cls-2" points="124.48 0.97 125.07 42.45 123.16 42.45 122.57 0.97 124.48 0.97"/><polygon class="cls-2" points="126.39 0.97 126.98 42.45 125.07 42.45 124.48 0.97 126.39 0.97"/><polygon class="cls-2" points="128.31 0.97 128.9 42.45 126.98 42.45 126.39 0.97 128.31 0.97"/><polygon class="cls-2" points="130.22 0.97 130.81 42.45 128.9 42.45 128.31 0.97 130.22 0.97"/><polygon class="cls-2" points="132.13 0.97 132.72 42.45 130.81 42.45 130.22 0.97 132.13 0.97"/><polygon class="cls-2" points="132.72 42.45 132.13 0.97 133.41 0.97 133.41 42.45 132.72 42.45"/></g><path class="cls-11" d="M129.87,17.22c-4.34,0-6.88,3.32-6.14,7a11.07,11.07,0,0,0,2,4.27,34.38,34.38,0,0,0,7.59,7.31.73.73,0,0,0,1,0c.81-.66,1.66-1.26,2.46-1.94a26.31,26.31,0,0,0,5.91-6.61A8,8,0,0,0,144,22.51,5.63,5.63,0,0,0,140,17.36a5.2,5.2,0,0,0-5.77,2.33c-.29.43-.41.52-.72,0A5,5,0,0,0,129.87,17.22Z"/><g class="cls-12"><polygon class="cls-13" points="122.99 30.78 123.06 36.04 122.99 36.04 122.99 30.78"/><polygon class="cls-14" points="124.7 16.75 124.98 36.04 123.06 36.04 122.99 30.78 122.99 16.75 124.7 16.75"/><polygon class="cls-14" points="126.62 16.75 126.89 36.04 124.98 36.04 124.7 16.75 126.62 16.75"/><polygon class="cls-14" points="128.53 16.75 128.81 36.04 126.89 36.04 126.62 16.75 128.53 16.75"/><polygon class="cls-14" points="130.45 16.75 130.72 36.04 128.81 36.04 128.53 16.75 130.45 16.75"/><polygon class="cls-14" points="132.36 16.75 132.63 36.04 130.72 36.04 130.45 16.75 132.36 16.75"/><polygon class="cls-14" points="134.27 16.75 134.55 36.04 132.63 36.04 132.36 16.75 134.27 16.75"/><polygon class="cls-14" points="136.19 16.75 136.46 36.04 134.55 36.04 134.27 16.75 136.19 16.75"/><polygon class="cls-14" points="138.1 16.75 138.38 36.04 136.46 36.04 136.19 16.75 138.1 16.75"/><polygon class="cls-14" points="140.01 16.75 140.29 36.04 138.38 36.04 138.1 16.75 140.01 16.75"/><polygon class="cls-14" points="141.93 16.75 142.2 36.04 140.29 36.04 140.01 16.75 141.93 16.75"/><polygon class="cls-14" points="143.84 16.75 144.12 36.04 142.2 36.04 141.93 16.75 143.84 16.75"/><polygon class="cls-14" points="144.12 36.04 143.84 16.75 144.17 16.75 144.17 36.04 144.12 36.04"/></g><path class="cls-2" d="M84.49,19.52h17.8l3.19,4.39H88.3Z"/><path class="cls-15" d="M197.44,37.08a2.68,2.68,0,0,1,2,.83,2.79,2.79,0,0,1,0,3.94,2.79,2.79,0,0,1-4,0,2.8,2.8,0,0,1,2-4.77Z"/><path class="cls-16" d="M231.06,22.48,228.42,24A9.27,9.27,0,0,0,220,19.53a12.5,12.5,0,0,0-6,1.47,10.74,10.74,0,0,0-4.26,4.08,10.86,10.86,0,0,0-1.53,5.59,9.65,9.65,0,0,0,1.14,4.72,7.88,7.88,0,0,0,3.22,3.21,10.1,10.1,0,0,0,4.89,1.12,13.59,13.59,0,0,0,5.51-1.15,10.58,10.58,0,0,0,4.09-3l2.64,1.86a15.79,15.79,0,0,1-5.37,4,16.9,16.9,0,0,1-6.73,1.25q-5.91,0-9.23-3.22A11.42,11.42,0,0,1,205,30.87a13.71,13.71,0,0,1,4.34-10.19A14.68,14.68,0,0,1,220,16.45,13.58,13.58,0,0,1,226.64,18,10.89,10.89,0,0,1,231.06,22.48Z"/><path class="cls-17" d="M239.59,7.47h3.14l-1.82,13.44q3.87-4.45,8.83-4.45a8.44,8.44,0,0,1,6.18,2.36,8.24,8.24,0,0,1,2.4,6.14,44.23,44.23,0,0,1-.48,5.62L256.3,42h-3.15l1.53-11.46a42,42,0,0,0,.45-5.5,5.56,5.56,0,0,0-1.61-4.15,5.76,5.76,0,0,0-4.22-1.58,8.77,8.77,0,0,0-4.6,1.31,9,9,0,0,0-3.35,3.53,22.31,22.31,0,0,0-1.84,7.06L238.06,42h-3.15Z"/></g></g></svg>